<?xml version="1.0" encoding="UTF-8"?>
<svg id="Layer_2" data-name="Layer 2" xmlns="http://www.w3.org/2000/svg" viewBox="0 0 204.55 43.56">
  <defs>
    <style>
      .cls-1 {
        fill-rule: evenodd;
      }

      .cls-1, .cls-2 {
        fill: #fff;
        stroke-width: 0px;
      }
    </style>
  </defs>
  <g id="Layer_1-2" data-name="Layer 1">
    <g>
      <path class="cls-1" d="M48.67.86v26.35c0,2.23-.55,3.84-1.65,4.82-1.1.98-2.67,1.47-4.73,1.47-1.01,0-2-.13-2.98-.4,0,0,0,0,0,0-.29-.08-.59.09-.66.38l-.93,3.36c-.07.25.05.52.3.61,1.2.45,2.91.67,5.11.67,1.97,0,3.79-.32,5.49-.97,1.69-.65,3.05-1.75,4.08-3.31,1.03-1.56,1.54-3.68,1.54-6.36V.86c0-.3-.24-.54-.54-.54h-4.48c-.3,0-.54.24-.54.54"/>
      <path class="cls-2" d="M.54.36h13.74c1.74,0,3.26.18,4.56.55,1.29.37,2.37.88,3.22,1.53.86.65,1.49,1.42,1.91,2.31.42.89.62,1.85.62,2.89,0,1.48-.41,2.79-1.22,3.95-.19.27-.12.65.15.84.97.67,1.71,1.5,2.22,2.49.6,1.16.91,2.48.91,3.95,0,1.24-.21,2.36-.62,3.36-.42,1-1.05,1.86-1.9,2.57-.85.71-1.92,1.26-3.21,1.64-1.29.38-2.82.57-4.57.57H.54c-.3,0-.54-.24-.54-.54V.9C0,.6.24.36.54.36M16.36,10.59c.39,0,.76.01,1.13.03.15.01.3-.04.4-.15.65-.69.98-1.46.98-2.32,0-.97-.38-1.71-1.14-2.24-.76-.53-1.87-.79-3.32-.79H5.96c-.3,0-.54.24-.54.54v4.4c0,.3.24.54.54.54h10.4ZM16.46,22.3c1.46,0,2.57-.31,3.32-.94.76-.62,1.14-1.51,1.14-2.64s-.38-2.02-1.14-2.66c-.76-.64-1.87-.95-3.32-.95H5.96c-.3,0-.54.24-.54.54v6.12c0,.3.24.54.54.54h10.51ZM31.98.36h4.38c.3,0,.54.24.54.54v25.57c0,.3-.24.54-.54.54h-4.38c-.3,0-.54-.24-.54-.54V.9c0-.3.24-.54.54-.54M61.77,13.61c0-2.01.37-3.85,1.11-5.52s1.78-3.11,3.12-4.3c1.34-1.2,2.95-2.13,4.82-2.79,1.87-.66,3.95-.99,6.23-.99s4.34.33,6.22.99c1.88.66,3.49,1.59,4.83,2.79,1.34,1.2,2.38,2.63,3.12,4.3s1.11,3.51,1.11,5.52-.37,3.88-1.11,5.57c-.74,1.69-1.78,3.14-3.12,4.36-1.34,1.22-2.95,2.16-4.83,2.84-1.88.68-3.95,1.01-6.22,1.01s-4.36-.34-6.23-1.01-3.48-1.62-4.82-2.84c-1.34-1.22-2.38-2.67-3.12-4.36-.74-1.69-1.11-3.54-1.11-5.57M67.19,13.61c0,1.38.25,2.61.74,3.72.5,1.1,1.19,2.04,2.07,2.82.88.78,1.93,1.38,3.13,1.8,1.2.42,2.51.63,3.92.63s2.72-.21,3.92-.63c1.2-.42,2.24-1.02,3.12-1.8.88-.78,1.57-1.72,2.07-2.82.5-1.1.75-2.34.75-3.72s-.25-2.61-.75-3.7c-.5-1.09-1.19-2.01-2.07-2.77-.88-.76-1.92-1.33-3.12-1.73-1.2-.4-2.51-.6-3.92-.6s-2.72.2-3.92.6c-1.2.4-2.24.97-3.13,1.73-.88.76-1.57,1.68-2.07,2.77-.5,1.09-.74,2.32-.74,3.7M106.47,20.28L95.34,1.17c-.21-.36.05-.81.46-.81h4.88c.2,0,.38.11.47.28l7.6,14c.2.38.74.37.94,0l7.5-14c.09-.17.27-.28.47-.28h4.89c.41,0,.67.45.47.8l-10.99,19.09c-.05.08-.07.17-.07.27v5.95c0,.3-.24.54-.54.54h-4.35c-.3,0-.54-.24-.54-.54v-5.92c0-.1-.02-.19-.07-.27M127.44.36h4.38c.3,0,.54.24.54.54v25.57c0,.3-.24.54-.54.54h-4.38c-.3,0-.54-.24-.54-.54V.9c0-.3.24-.54.54-.54M140.95,19.32c.83.45,1.67.86,2.51,1.23,1,.44,2.03.81,3.1,1.11,1.07.3,2.2.53,3.38.69,1.18.16,2.44.24,3.77.24,1.61,0,2.97-.11,4.1-.31,1.13-.21,2.05-.5,2.76-.87.71-.37,1.23-.81,1.56-1.32.32-.51.49-1.07.49-1.67,0-.97-.4-1.73-1.21-2.29-.81-.56-2.06-.84-3.74-.84-.74,0-1.52.05-2.34.15-.82.1-1.65.2-2.49.31-.84.11-1.66.22-2.48.31-.82.1-1.58.15-2.3.15-1.2,0-2.35-.15-3.44-.46-1.1-.31-2.07-.77-2.92-1.38-.85-.61-1.53-1.38-2.03-2.3-.5-.92-.75-1.99-.75-3.22,0-.73.1-1.45.3-2.17.2-.71.52-1.4.96-2.05.44-.65,1.01-1.26,1.7-1.82.69-.56,1.54-1.05,2.52-1.46.99-.41,2.12-.73,3.42-.96,1.29-.23,2.77-.35,4.42-.35,1.2,0,2.4.06,3.61.2,1.21.13,2.38.31,3.53.55,1.15.24,2.25.53,3.31.86.86.27,1.67.57,2.43.89.29.12.4.47.25.74l-1.86,3.42c-.13.24-.43.35-.69.24-.62-.26-1.28-.5-1.97-.72-.87-.28-1.77-.52-2.72-.73-.95-.2-1.92-.37-2.93-.49-1.01-.12-2.04-.18-3.09-.18-1.49,0-2.72.11-3.68.32-.96.22-1.73.49-2.3.83-.57.34-.96.71-1.19,1.13-.22.41-.33.83-.33,1.23,0,.8.36,1.45,1.08,1.95.72.51,1.81.76,3.28.76.59,0,1.27-.04,2.04-.13.77-.09,1.58-.18,2.43-.28.85-.1,1.72-.2,2.6-.28.88-.09,1.74-.13,2.57-.13,1.57,0,2.97.18,4.18.53,1.21.35,2.23.86,3.05,1.51.82.65,1.44,1.44,1.86,2.37.42.93.63,1.96.63,3.11,0,1.54-.36,2.9-1.07,4.1s-1.73,2.21-3.04,3.03c-1.32.82-2.9,1.45-4.76,1.88-1.86.43-3.93.64-6.21.64-1.51,0-2.97-.09-4.41-.28-1.44-.19-2.81-.45-4.13-.8-1.32-.35-2.57-.76-3.76-1.25-1-.41-1.94-.84-2.81-1.32-.27-.15-.35-.5-.18-.75l2.3-3.49c.16-.24.47-.31.71-.18M174.83.36h4.66c.14,0,.28.06.38.16l9.17,9.18c.21.21.55.21.76,0l9.17-9.18c.1-.1.24-.16.38-.16h4.66c.3,0,.54.24.54.54v25.57c0,.3-.24.54-.54.54h-4.35c-.3,0-.54-.24-.54-.54V9.1c0-.47-.57-.71-.91-.39l-8.43,8.1c-.21.2-.54.2-.74,0l-8.43-8.1c-.34-.33-.91-.09-.91.39v17.37c0,.3-.24.54-.54.54h-4.35c-.3,0-.54-.24-.54-.54V.9c0-.3.24-.54.54-.54"/>
      <path class="cls-2" d="M.54.36h13.74c1.74,0,3.26.18,4.56.55,1.29.37,2.37.88,3.22,1.53.86.65,1.49,1.42,1.91,2.31.42.89.62,1.85.62,2.89,0,1.48-.41,2.79-1.22,3.95-.19.27-.12.65.15.84.97.67,1.71,1.5,2.22,2.49.6,1.16.91,2.48.91,3.95,0,1.24-.21,2.36-.62,3.36-.42,1-1.05,1.86-1.9,2.57-.85.71-1.92,1.26-3.21,1.64-1.29.38-2.82.57-4.57.57H.54c-.3,0-.54-.24-.54-.54V.9C0,.6.24.36.54.36M16.36,10.59c.39,0,.76.01,1.13.03.15.01.3-.04.4-.15.65-.69.98-1.46.98-2.32,0-.97-.38-1.71-1.14-2.24-.76-.53-1.87-.79-3.32-.79H5.96c-.3,0-.54.24-.54.54v4.4c0,.3.24.54.54.54h10.4ZM16.46,22.3c1.46,0,2.57-.31,3.32-.94.76-.62,1.14-1.51,1.14-2.64s-.38-2.02-1.14-2.66c-.76-.64-1.87-.95-3.32-.95H5.96c-.3,0-.54.24-.54.54v6.12c0,.3.24.54.54.54h10.51ZM31.98.36h4.38c.3,0,.54.24.54.54v25.57c0,.3-.24.54-.54.54h-4.38c-.3,0-.54-.24-.54-.54V.9c0-.3.24-.54.54-.54M127.44.36h4.38c.3,0,.54.24.54.54v25.57c0,.3-.24.54-.54.54h-4.38c-.3,0-.54-.24-.54-.54V.9c0-.3.24-.54.54-.54M140.95,19.32c.83.45,1.67.86,2.51,1.23,1,.44,2.03.81,3.1,1.11,1.07.3,2.2.53,3.38.69,1.18.16,2.44.24,3.77.24,1.61,0,2.97-.1,4.1-.31,1.13-.21,2.05-.5,2.76-.87.71-.37,1.23-.81,1.56-1.32.32-.51.49-1.07.49-1.67,0-.97-.4-1.73-1.21-2.29-.81-.56-2.06-.84-3.74-.84-.74,0-1.52.05-2.34.15-.82.1-1.65.2-2.49.31-.84.11-1.66.22-2.48.31-.82.1-1.58.15-2.3.15-1.2,0-2.35-.15-3.44-.46-1.1-.31-2.07-.77-2.92-1.38-.85-.61-1.53-1.38-2.03-2.3-.5-.92-.75-1.99-.75-3.22,0-.73.1-1.45.3-2.17.2-.71.52-1.4.96-2.05.44-.65,1.01-1.26,1.7-1.82.69-.56,1.54-1.05,2.52-1.46.99-.41,2.12-.73,3.42-.96,1.29-.23,2.77-.35,4.42-.35,1.2,0,2.4.06,3.61.2,1.21.13,2.38.31,3.53.55,1.15.24,2.25.53,3.31.86.86.27,1.67.57,2.43.89.29.12.4.47.25.74l-1.86,3.42c-.13.24-.43.35-.69.24-.62-.26-1.28-.5-1.97-.72-.87-.28-1.77-.52-2.72-.73-.95-.2-1.92-.37-2.93-.49-1.01-.12-2.04-.18-3.09-.18-1.49,0-2.72.11-3.68.32-.96.22-1.73.49-2.3.83-.57.34-.96.71-1.19,1.13-.22.41-.33.83-.33,1.23,0,.8.36,1.45,1.08,1.95.72.51,1.81.76,3.28.76.59,0,1.27-.04,2.04-.13.77-.09,1.58-.18,2.43-.28.85-.1,1.72-.2,2.6-.28.88-.09,1.74-.13,2.57-.13,1.57,0,2.97.18,4.18.53,1.21.35,2.23.86,3.05,1.51.82.65,1.44,1.44,1.86,2.37.42.93.63,1.96.63,3.11,0,1.54-.36,2.9-1.07,4.1s-1.73,2.21-3.04,3.03c-1.32.82-2.9,1.45-4.76,1.88-1.86.43-3.93.64-6.21.64-1.51,0-2.97-.09-4.41-.28-1.44-.19-2.81-.45-4.13-.8-1.32-.35-2.57-.76-3.76-1.25-1-.41-1.94-.84-2.81-1.32-.27-.15-.35-.5-.18-.75l2.3-3.49c.16-.24.47-.31.71-.18M174.83.36h4.66c.14,0,.28.06.38.16l9.17,9.18c.21.21.55.21.76,0l9.17-9.18c.1-.1.24-.16.38-.16h4.66c.3,0,.54.24.54.54v25.57c0,.3-.24.54-.54.54h-4.35c-.3,0-.54-.24-.54-.54V9.1c0-.47-.57-.71-.91-.39l-8.43,8.1c-.21.2-.54.2-.74,0l-8.43-8.1c-.34-.33-.91-.09-.91.39v17.37c0,.3-.24.54-.54.54h-4.35c-.3,0-.54-.24-.54-.54V.9c0-.3.24-.54.54-.54"/>
      <path class="cls-1" d="M64.55,33.06c5.34,6.59,13.95,10.51,23.43,10.51s18.08-3.92,23.43-10.51c.39-.48-.21-1.09-.71-.74-6.05,4.16-13.98,6.42-22.71,6.42s-16.66-2.26-22.71-6.42c-.51-.35-1.1.27-.71.74"/>
    </g>
  </g>
</svg>